<?xml version="1.0" encoding="utf-8"?>
<!-- Generator: Adobe Illustrator 22.1.0, SVG Export Plug-In . SVG Version: 6.00 Build 0)  -->
<svg version="1.1" id="Layer_1" xmlns="http://www.w3.org/2000/svg" xmlns:xlink="http://www.w3.org/1999/xlink" x="0px" y="0px"
	 viewBox="0 0 29 22" style="enable-background:new 0 0 29 22;" xml:space="preserve">
<style type="text/css">
	.st0{fill-rule:evenodd;clip-rule:evenodd;}
</style>
<path d="M13.6,4.2c0.1,0.1,0.1,0.3,0.1,0.5v16.2c-2.8-2.9-6.8-3.4-9.3-3.4c-0.6,0-1-0.5-1-1V1c0-0.3,0.1-0.5,0.3-0.7
	C3.9,0.1,4.2,0,4.4,0c0,0,0,0,0,0C6.9,0,11.3,0.6,13.6,4.2z M25.6,16.5V1c0-0.3-0.1-0.5-0.3-0.7C25.1,0.1,24.8,0,24.6,0c0,0,0,0,0,0
	c-2.4,0-6.8,0.6-9.1,4.2c-0.1,0.1-0.1,0.3-0.1,0.5v16.2c2.8-2.9,6.8-3.4,9.3-3.4C25.1,17.5,25.6,17,25.6,16.5z M28,3.6h-0.8v12.9
	c0,1.4-1.2,2.6-2.6,2.6c-2,0-5.4,0.4-7.8,2.7c4.1-1,8.5-0.4,11,0.2c0.3,0.1,0.6,0,0.9-0.2c0.2-0.2,0.4-0.5,0.4-0.8V4.6
	C29,4,28.5,3.6,28,3.6z M1.8,16.5V3.6H1c-0.6,0-1,0.5-1,1V21c0,0.3,0.1,0.6,0.4,0.8C0.6,22,1,22,1.3,22c2.5-0.6,6.8-1.2,11-0.2
	c-2.4-2.2-5.8-2.6-7.8-2.7C3,19.1,1.8,17.9,1.8,16.5z"  fill="#FF5959" />
</svg>
