<?xml version="1.0" encoding="utf-8"?>
<!-- Generator: Adobe Illustrator 22.1.0, SVG Export Plug-In . SVG Version: 6.00 Build 0)  -->
<svg version="1.1" id="Layer_1" xmlns="http://www.w3.org/2000/svg" xmlns:xlink="http://www.w3.org/1999/xlink" x="0px" y="0px"
	 viewBox="0 0 31.4 25.4" style="enable-background:new 0 0 31.4 25.4;" xml:space="preserve">
<style type="text/css">
	.st0{fill-rule:evenodd;clip-rule:evenodd;}
</style>
<path d="M31.1,10.8l-0.1-4c-0.1-2.2-2.2-2-2.2-2L20.6,5l0-1c-0.1-4.4-4.3-4-4.3-4l-2,0c-4.4,0.1-4.1,4.2-4.1,4.2l0,1L2,5.5
	c-2.1,0.1-2,2.1-2,2.1l0.1,4c0,0,8.9,3,15.5,2.8C22.8,14.3,31.1,10.8,31.1,10.8z M13,4.1C13,2.1,15.4,2,15.4,2
	C17.9,1.9,17.8,4,17.8,4l0,1L13,5.2L13,4.1z M13,11.8l5.1-0.1l0,2l-5.1,0.1L13,11.8z M31.4,22.6l-0.3-10.3c0,0-6.6,3.2-15.5,3.5
	C7.4,16,0.1,13,0.1,13l0.3,10.4c0.1,2.1,2,2,2,2l26.9-0.7C31.6,24.6,31.4,22.6,31.4,22.6z M18.3,17.5c0,0.7-0.5,1.3-1.2,1.3
	l-2.6,0.1c-0.7,0-1.3-0.5-1.3-1.2l0-1.3l5.1-0.1L18.3,17.5z"  fill="#FF5959" />
</svg>
