<?xml version="1.0" encoding="utf-8"?>
<!-- Generator: Adobe Illustrator 22.1.0, SVG Export Plug-In . SVG Version: 6.00 Build 0)  -->
<svg version="1.1" id="Layer_1" xmlns="http://www.w3.org/2000/svg" xmlns:xlink="http://www.w3.org/1999/xlink" x="0px" y="0px"
	 viewBox="0 0 14 14" style="enable-background:new 0 0 14 14;" xml:space="preserve">
<style type="text/css">
	.st0{fill-rule:evenodd;clip-rule:evenodd;}
</style>
<path d="M9,6.5C9.1,6.6,9.2,6.8,9.2,7c0,0.2-0.1,0.4-0.2,0.5L6.3,9.9l0,0c-0.1,0.1-0.3,0.2-0.4,0.2c-0.4,0-0.7-0.3-0.7-0.7
	c0-0.2,0.1-0.4,0.2-0.5l0,0L7.6,7L5.5,5.1l0,0C5.3,5,5.3,4.8,5.3,4.6c0-0.4,0.3-0.7,0.7-0.7c0.2,0,0.3,0.1,0.4,0.2l0,0L9,6.5z M14,7
	c0,3.9-3.1,7-7,7s-7-3.1-7-7c0-3.9,3.1-7,7-7S14,3.1,14,7z M12.7,7c0-3.1-2.6-5.7-5.7-5.7S1.3,3.9,1.3,7s2.6,5.7,5.7,5.7
	S12.7,10.1,12.7,7z"  fill="#FF5959" />
</svg>
