<?xml version="1.0" encoding="utf-8"?>
<!-- Generator: Adobe Illustrator 22.1.0, SVG Export Plug-In . SVG Version: 6.00 Build 0)  -->
<svg version="1.1" id="Layer_1" xmlns="http://www.w3.org/2000/svg" xmlns:xlink="http://www.w3.org/1999/xlink" x="0px" y="0px"
	 viewBox="0 0 16 20" style="enable-background:new 0 0 16 20;" xml:space="preserve">
<style type="text/css">
	.st0{fill-rule:evenodd;clip-rule:evenodd;}
</style>
<path d="M4,7.5c2.2,0,4-1.7,4-3.8S6.2,0,4,0C1.8,0,0,1.7,0,3.8S1.8,7.5,4,7.5z M4,2.5c0.7,0,1.3,0.6,1.3,1.3S4.7,5,4,5
	S2.7,4.4,2.7,3.8S3.3,2.5,4,2.5z M12,12.5c-2.2,0-4,1.7-4,3.8S9.8,20,12,20c2.2,0,4-1.7,4-3.8S14.2,12.5,12,12.5z M12,17.5
	c-0.7,0-1.3-0.6-1.3-1.3S11.3,15,12,15s1.3,0.6,1.3,1.3S12.7,17.5,12,17.5z M15.8,2L2.4,19.5C2.2,19.8,1.7,20,1.3,20
	c-0.3,0-0.5-0.1-0.8-0.2C0,19.4-0.2,18.6,0.3,18L13.6,0.5C14,0,14.8-0.2,15.4,0.2S16.2,1.4,15.8,2z"  fill="#FF5959" />
</svg>
