<?xml version="1.0" encoding="utf-8"?>
<!-- Generator: Adobe Illustrator 22.1.0, SVG Export Plug-In . SVG Version: 6.00 Build 0)  -->
<svg version="1.1" id="Layer_1" xmlns="http://www.w3.org/2000/svg" xmlns:xlink="http://www.w3.org/1999/xlink" x="0px" y="0px"
	 viewBox="0 0 24 22" style="enable-background:new 0 0 24 22;" xml:space="preserve">
<style type="text/css">
	.st0{fill-rule:evenodd;clip-rule:evenodd;}
</style>
<path d="M24,8.4c-0.1-0.1-0.2-0.3-0.3-0.3L15.9,7l-3.5-6.8C12.3,0.1,12.2,0,12,0s-0.3,0.1-0.4,0.2L8.1,7L0.4,8.1
	C0.2,8.1,0.1,8.2,0,8.4C0,8.5,0,8.7,0.1,8.8l5.6,5.3l-1.3,7.4c0,0.2,0,0.3,0.2,0.4C4.7,22,4.9,22,5,22l7-3.5l7,3.5
	c0.1,0,0.1,0,0.2,0c0.1,0,0.2,0,0.3-0.1c0.1-0.1,0.2-0.2,0.2-0.4l-1.3-7.4l5.6-5.3C24,8.7,24,8.5,24,8.4z"  fill="#FF5959" />
</svg>
