<?xml version="1.0" encoding="utf-8"?>
<!-- Generator: Adobe Illustrator 22.1.0, SVG Export Plug-In . SVG Version: 6.00 Build 0)  -->
<svg version="1.1" id="Layer_1" xmlns="http://www.w3.org/2000/svg" xmlns:xlink="http://www.w3.org/1999/xlink" x="0px" y="0px"
	 viewBox="0 0 29 10" style="enable-background:new 0 0 29 10;" xml:space="preserve">
<style type="text/css">
	.st0{fill-rule:evenodd;clip-rule:evenodd;}
</style>
<path d="M7.4,1v8c0,0.6-0.3,0.9-0.7,1c-0.4,0-0.6-0.1-1-0.5L1.6,3.5v5.5c0,0.6-0.3,1-0.8,1C0.4,9.9,0,9.6,0,8.9V1.1
	c0-0.5,0.1-1,0.7-1c0.4,0,0.5,0.1,0.9,0.5l4.1,5.9V1c0-0.5,0.4-1,0.8-1C7,0,7.4,0.5,7.4,1z M14.6,8.1h-3.8V5.9H14
	c1.1,0,1.1-1.9,0-1.9h-3.1V2h3.6c1.1,0,1.1-1.8,0-1.8H9.9C9.5,0.1,9.2,0.5,9.2,1v8c0,0.5,0.3,0.9,0.8,0.9h4.7
	C15.8,9.9,15.8,8.1,14.6,8.1z M27.4,0.7l-1.9,5.8l-2.2-5.9c-0.3-0.9-1.1-0.8-1.4,0l-2.2,5.8l-1.8-5.8c-0.3-1.1-1.9-0.7-1.5,0.6
	L18.8,9c0.2,0.6,0.4,1,0.9,1c0.4,0,0.7-0.3,0.9-0.9l2.1-5.5l2.2,5.6C25,9.7,25.2,10,25.6,10c0.4,0,0.6-0.2,0.9-1l2.5-7.6
	C29.3,0.1,27.8-0.4,27.4,0.7z"  fill="#FF5959" />
</svg>
