<?xml version="1.0" encoding="utf-8"?>
<!-- Generator: Adobe Illustrator 22.1.0, SVG Export Plug-In . SVG Version: 6.00 Build 0)  -->
<svg version="1.1" id="Layer_1" xmlns="http://www.w3.org/2000/svg" xmlns:xlink="http://www.w3.org/1999/xlink" x="0px" y="0px"
	 viewBox="0 0 22 22" style="enable-background:new 0 0 22 22;" xml:space="preserve">
<style type="text/css">
	.st0{fill-rule:evenodd;clip-rule:evenodd;}
</style>
<path d="M11,19.8C11,21,10,22,8.8,22c-1.3,0-2.3-1-2.3-2.2c0-1.2,1-2.2,2.3-2.2C10,17.6,11,18.6,11,19.8z M17.4,17.6
	c-1.3,0-2.3,1-2.3,2.2c0,1.2,1,2.2,2.3,2.2c1.3,0,2.3-1,2.3-2.2C19.6,18.6,18.6,17.6,17.4,17.6z M5.5,4.4C5.5,4.4,5.5,4.4,5.5,4.4
	L4.8,1.5C4.7,1.2,4.5,1,4.2,0.9L1.1,0C0.7-0.1,0.2,0.2,0,0.6c-0.1,0.4,0.1,0.9,0.6,1l2.6,0.7l3,13.3C6.3,16,6.6,16.3,7,16.3l12.2,0
	c0,0,0,0,0,0c0.5,0,0.9-0.4,0.9-0.8c0-0.5-0.4-0.8-0.9-0.9l-11.5,0L7.4,13L20,13c0.4,0,0.7-0.3,0.7-0.7L22,6L5.5,4.4z"  fill="#FF5959" />
</svg>
