<?xml version="1.0" encoding="utf-8"?>
<!-- Generator: Adobe Illustrator 22.1.0, SVG Export Plug-In . SVG Version: 6.00 Build 0)  -->
<svg version="1.1" id="Layer_1" xmlns="http://www.w3.org/2000/svg" xmlns:xlink="http://www.w3.org/1999/xlink" x="0px" y="0px"
	 viewBox="0 0 21 21" style="enable-background:new 0 0 21 21;" xml:space="preserve">
<style type="text/css">
	.st0{fill-rule:evenodd;clip-rule:evenodd;}
</style>
<path d="M10.5,18.9c0,1.2-1,2.1-2.2,2.1c-1.2,0-2.2-0.9-2.2-2.1c0-1.2,1-2.1,2.2-2.1C9.6,16.8,10.5,17.7,10.5,18.9z M16.6,16.8
	c-1.2,0-2.2,0.9-2.2,2.1c0,1.2,1,2.1,2.2,2.1c1.2,0,2.2-0.9,2.2-2.1C18.8,17.7,17.8,16.8,16.6,16.8z M5.3,4.2
	C5.2,4.2,5.2,4.2,5.3,4.2L4.6,1.4C4.5,1.2,4.3,0.9,4,0.8L1.1,0C0.6-0.1,0.2,0.2,0,0.6c-0.1,0.4,0.1,0.9,0.6,1l2.5,0.7l2.8,12.7
	c0.1,0.4,0.4,0.6,0.8,0.6l11.7,0c0,0,0,0,0,0c0.5,0,0.8-0.4,0.8-0.8c0-0.4-0.4-0.8-0.8-0.8l-11,0L7,12.4l12.1,0
	c0.4,0,0.7-0.3,0.7-0.7l1.2-6L5.3,4.2z"  fill="#FF5959" />
</svg>
