<?xml version="1.0" encoding="utf-8"?>
<!-- Generator: Adobe Illustrator 22.1.0, SVG Export Plug-In . SVG Version: 6.00 Build 0)  -->
<svg version="1.1" id="Layer_1" xmlns="http://www.w3.org/2000/svg" xmlns:xlink="http://www.w3.org/1999/xlink" x="0px" y="0px"
	 viewBox="0 0 52 43" style="enable-background:new 0 0 52 43;" xml:space="preserve">
<style type="text/css">
	.st0{fill-rule:evenodd;clip-rule:evenodd;}
</style>
<path d="M27.5,43L52,36V10.5l-24.5,7V43z M48,30.8l2.9,0.8L50,34.5l-2.9-0.8L48,30.8z M42.1,29.1l2.9,0.8l-0.9,2.8L41.3,32
	L42.1,29.1z M36.3,27.5l2.9,0.8l-0.9,2.8l-2.9-0.8L36.3,27.5z M30.4,25.8l2.9,0.8l-0.9,2.8l-2.9-0.8L30.4,25.8z M0,36l24.5,7V17.4
	L0,10.5V36z M21.6,25.8l0.9,2.8l-2.9,0.8l-0.9-2.8L21.6,25.8z M15.7,27.5l0.9,2.8l-2.9,0.8l-0.9-2.8L15.7,27.5z M9.9,29.1l0.9,2.8
	l-2.9,0.8L6.9,30L9.9,29.1z M4,30.8l0.9,2.8L2,34.5l-0.9-2.8L4,30.8z M26,0L0,7.4v0v0l26,7.4l26-7.4v0v0L26,0z M27.5,10.5h-3v-3h3
	V10.5z M27.5,4.5h-3v-3h3V4.5z"  fill="#FF5959" />
</svg>
