<?xml version="1.0" encoding="utf-8"?>
<!-- Generator: Adobe Illustrator 22.1.0, SVG Export Plug-In . SVG Version: 6.00 Build 0)  -->
<svg version="1.1" id="Layer_1" xmlns="http://www.w3.org/2000/svg" xmlns:xlink="http://www.w3.org/1999/xlink" x="0px" y="0px"
	 viewBox="0 0 17 17" style="enable-background:new 0 0 17 17;" xml:space="preserve">
<style type="text/css">
	.st0{fill-rule:evenodd;clip-rule:evenodd;}
</style>
<path d="M8.5,0C3.8,0,0,3.8,0,8.5S3.8,17,8.5,17S17,13.2,17,8.5S13.2,0,8.5,0z M8.5,15.8c-4,0-7.3-3.3-7.3-7.3s3.3-7.3,7.3-7.3
	s7.3,3.3,7.3,7.3S12.5,15.8,8.5,15.8z M11.3,8c0.1,0.1,0.2,0.3,0.2,0.4c0,0.2-0.1,0.3-0.2,0.4l-3.9,3.9c-0.1,0.1-0.3,0.2-0.4,0.2
	c-0.2,0-0.3-0.1-0.4-0.2c-0.2-0.2-0.2-0.6,0-0.8L10,8.5L6.5,5c-0.2-0.2-0.2-0.6,0-0.8c0.2-0.2,0.6-0.2,0.8,0L11.3,8z" fill="#FF5959" />
</svg>
