<?xml version="1.0" encoding="utf-8"?>
<!-- Generator: Adobe Illustrator 22.1.0, SVG Export Plug-In . SVG Version: 6.00 Build 0)  -->
<svg version="1.1" id="Layer_1" xmlns="http://www.w3.org/2000/svg" xmlns:xlink="http://www.w3.org/1999/xlink" x="0px" y="0px"
	 viewBox="0 0 46 35" style="enable-background:new 0 0 46 35;" xml:space="preserve">
<style type="text/css">
	.st0{fill-rule:evenodd;clip-rule:evenodd;}
</style>
<path d="M21.5,6.7c0.1,0.2,0.2,0.5,0.2,0.8v25.7c-4.4-4.6-10.8-5.4-14.7-5.4c-0.9,0-1.6-0.7-1.6-1.6V1.6c0-0.4,0.2-0.9,0.5-1.2
	C6.2,0.2,6.6,0,7,0c0,0,0,0,0,0C10.9,0,17.9,0.9,21.5,6.7z M40.6,26.2V1.6c0-0.4-0.2-0.9-0.5-1.2C39.8,0.2,39.4,0,39,0c0,0,0,0,0,0
	c-3.8,0-10.8,0.9-14.5,6.7c-0.1,0.2-0.2,0.5-0.2,0.8v25.7c4.4-4.6,10.8-5.4,14.7-5.4C39.9,27.9,40.6,27.1,40.6,26.2z M44.4,5.7h-1.2
	v20.6c0,2.3-1.9,4.2-4.2,4.2c-3.2,0-8.6,0.6-12.4,4.2C33.1,33,40,34.1,44,35c0.5,0.1,1,0,1.4-0.3c0.4-0.3,0.6-0.8,0.6-1.3V7.3
	C46,6.4,45.3,5.7,44.4,5.7z M2.8,26.2V5.7H1.6C0.7,5.7,0,6.4,0,7.3v26.1c0,0.5,0.2,1,0.6,1.3C1,35,1.5,35.1,2,35
	C6,34.1,12.9,33,19.4,34.6C15.6,31,10.3,30.4,7,30.4C4.7,30.4,2.8,28.5,2.8,26.2z"  fill="#ff5959" />
</svg>
