<?xml version="1.0" encoding="utf-8"?>
<!-- Generator: Adobe Illustrator 22.1.0, SVG Export Plug-In . SVG Version: 6.00 Build 0)  -->
<svg version="1.1" id="Layer_1" xmlns="http://www.w3.org/2000/svg" xmlns:xlink="http://www.w3.org/1999/xlink" x="0px" y="0px"
	 viewBox="0 0 52 46" style="enable-background:new 0 0 52 46;" xml:space="preserve">
<style type="text/css">
	.st0{fill-rule:evenodd;clip-rule:evenodd;}
</style>
<path d="M51.9,9.7l-0.6,3.9L14.6,5.8L15.2,2c0.3-1.3,1.6-2.2,3-1.9L50,6.7C51.4,7,52.2,8.4,51.9,9.7z M37.2,16.3L50,19l-2.2,10.5
	c-0.3,1.3-1.6,2.2-3,1.9l-3.6-0.7l0.9,3.4c0.4,1.3-0.4,2.7-1.8,3.1L8.7,45.9c-1.3,0.4-2.7-0.4-3.1-1.7L0.1,24.4
	c-0.4-1.3,0.4-2.7,1.8-3.1l9.8-2.7l1.6-7.3l14.3,3l6-1.7c1.3-0.4,2.7,0.4,3.1,1.7L37.2,16.3z M3.2,27.7l32.6-9l-0.8-2.9l-0.3-0.9
	c-0.1-0.2-0.3-0.3-0.5-0.3c0,0-0.1,0-0.1,0l-2.2,0.6l-20.7,5.7l-8.8,2.4c-0.2,0.1-0.4,0.3-0.3,0.6L3.2,27.7z M41.1,25.6l3.7,0.8
	c0.6,0.1,1.1-0.2,1.2-0.8l0.8-3.7c0.1-0.6-0.2-1.1-0.8-1.2l-3.7-0.8c-0.6-0.1-1.1,0.2-1.2,0.8l-0.8,3.7
	C40.2,24.9,40.5,25.5,41.1,25.6z M38.9,30.2l-2-7.1l-32.6,9l3.2,11.5C7.7,43.8,7.9,44,8.1,44c0,0,0.1,0,0.1,0l31.7-8.7
	c0.2,0,0.2-0.1,0.3-0.2c0-0.1,0.1-0.2,0-0.4L38.9,30.2z M13.3,35.4c-0.2-0.5-0.7-0.9-1.3-0.7l-3.7,1c-0.5,0.2-0.9,0.7-0.7,1.3l1,3.7
	c0.2,0.5,0.7,0.9,1.3,0.7l3.7-1c0.5-0.2,0.9-0.7,0.7-1.3L13.3,35.4z"  fill="#FF5959" />
</svg>
