<?xml version="1.0" encoding="utf-8"?>
<!-- Generator: Adobe Illustrator 22.1.0, SVG Export Plug-In . SVG Version: 6.00 Build 0)  -->
<svg version="1.1" id="Layer_1" xmlns="http://www.w3.org/2000/svg" xmlns:xlink="http://www.w3.org/1999/xlink" x="0px" y="0px"
	 viewBox="0 0 33 28" style="enable-background:new 0 0 33 28;" xml:space="preserve">
<style type="text/css">
	.st0{fill-rule:evenodd;clip-rule:evenodd;}
</style>
<path d="M17.5,28L33,23.5V6.8l-15.5,4.5V28z M30.4,20.1l1.9,0.5l-0.5,1.8l-1.9-0.5L30.4,20.1z M26.7,19l1.9,0.5l-0.5,1.8l-1.9-0.5
	L26.7,19z M23,17.9l1.9,0.5l-0.5,1.8l-1.9-0.5L23,17.9z M19.3,16.8l1.9,0.5l-0.5,1.8l-1.9-0.5L19.3,16.8z M0,23.5L15.5,28V11.4
	L0,6.8V23.5z M13.7,16.8l0.5,1.8l-1.9,0.5l-0.5-1.8L13.7,16.8z M10,17.9l0.5,1.8l-1.9,0.5l-0.5-1.8L10,17.9z M6.3,19l0.5,1.8
	l-1.9,0.5l-0.5-1.8L6.3,19z M2.6,20.1l0.5,1.8l-1.9,0.5l-0.5-1.8L2.6,20.1z M16.5,0L0,4.8v0v0l16.5,4.8L33,4.8v0v0L16.5,0z
	 M17.5,6.8h-1.9V4.9h1.9V6.8z M17.5,3h-1.9V1h1.9V3z"  fill="#ff5959" />
</svg>
