<?xml version="1.0" encoding="utf-8"?>
<!-- Generator: Adobe Illustrator 22.1.0, SVG Export Plug-In . SVG Version: 6.00 Build 0)  -->
<svg version="1.1" id="Layer_1" xmlns="http://www.w3.org/2000/svg" xmlns:xlink="http://www.w3.org/1999/xlink" x="0px" y="0px"
	 viewBox="0 0 19 25" style="enable-background:new 0 0 19 25;" xml:space="preserve">
<style type="text/css">
	.st0{fill-rule:evenodd;clip-rule:evenodd;}
</style>
<path d="M15.4,16.9c0,0.3-0.2,0.5-0.5,0.5H3.7c-0.3,0-0.5-0.2-0.5-0.5c0-0.3,0.2-0.5,0.5-0.5h11.2C15.2,16.4,15.4,16.6,15.4,16.9z
	 M14.9,13.2H3.7c-0.3,0-0.5,0.2-0.5,0.5c0,0.3,0.2,0.5,0.5,0.5h11.2c0.3,0,0.5-0.2,0.5-0.5C15.4,13.4,15.2,13.2,14.9,13.2z M3.2,7.3
	c0,0.3,0.2,0.5,0.5,0.5h11.2c0.3,0,0.5-0.2,0.5-0.5c0-0.3-0.2-0.5-0.5-0.5H3.7C3.4,6.8,3.2,7.1,3.2,7.3z M19,4.7v18.7
	c0,0.8-0.7,1.5-1.6,1.5H1.6C0.7,25,0,24.3,0,23.5V1.5C0,0.7,0.7,0,1.6,0h12.9L19,4.7z M14.9,4.4h2l-2-2.1V4.4z M17.7,5.7h-3.5
	c-0.4,0-0.7-0.3-0.7-0.6V1.3h-12c-0.1,0-0.3,0.1-0.3,0.2v21.9c0,0.1,0.1,0.2,0.3,0.2h15.8c0.1,0,0.3-0.1,0.3-0.2V5.7z M14.9,10.1
	H3.7c-0.3,0-0.5,0.2-0.5,0.5s0.2,0.5,0.5,0.5h11.2c0.3,0,0.5-0.2,0.5-0.5C15.4,10.3,15.2,10.1,14.9,10.1z"  fill="#FF5959" />
</svg>
