<?xml version="1.0" encoding="utf-8"?>
<!-- Generator: Adobe Illustrator 22.1.0, SVG Export Plug-In . SVG Version: 6.00 Build 0)  -->
<svg version="1.1" id="Layer_1" xmlns="http://www.w3.org/2000/svg" xmlns:xlink="http://www.w3.org/1999/xlink" x="0px" y="0px"
	 viewBox="0 0 8 18" style="enable-background:new 0 0 8 18;" xml:space="preserve">
<style type="text/css">
	.st0{fill-rule:evenodd;clip-rule:evenodd;}
</style>
<path d="M7.9,11L7.9,11c-0.1-0.3-0.2-0.5-0.3-0.7c-0.1-0.2-0.3-0.4-0.4-0.6C7,9.5,6.8,9.3,6.6,9.2C6.5,9.1,6.3,8.9,6,8.8
	C5.7,8.6,5.5,8.5,5.3,8.4C5.2,8.3,4.9,8.2,4.6,8.1C4.3,8,4.1,7.9,4,7.8C3.9,7.7,3.7,7.6,3.4,7.5C3.2,7.4,3,7.3,2.9,7.2
	C2.8,7.1,2.7,7,2.6,6.8C2.4,6.7,2.3,6.5,2.3,6.4C2.2,6.2,2.2,6,2.2,5.8c0-0.5,0.2-0.9,0.6-1.3c0.4-0.3,0.9-0.5,1.5-0.5
	c0.3,0,0.5,0,0.8,0.1c0.3,0.1,0.5,0.2,0.7,0.3c0.2,0.1,0.4,0.2,0.5,0.3C6.4,4.9,6.5,5,6.6,5.1c0.1,0.1,0.1,0.1,0.1,0.1
	c0,0,0.1,0,0.1,0c0,0,0.1,0,0.1-0.1l0.7-1.5c0-0.1,0-0.1,0-0.2c0,0-0.1-0.1-0.1-0.1c0,0-0.1-0.1-0.3-0.3C7,2.9,6.8,2.8,6.7,2.7
	C6.5,2.6,6.2,2.5,5.9,2.4c-0.3-0.1-0.6-0.2-1-0.2l-0.1,0V0.2c0-0.1,0-0.1,0-0.1c0,0-0.1,0-0.1,0H3.5c0,0-0.1,0-0.1,0.1
	c0,0,0,0.1,0,0.1v2l-0.1,0C2.3,2.4,1.6,2.8,1,3.5C0.5,4.2,0.2,5,0.2,5.9c0,0.3,0,0.5,0.1,0.8c0,0.2,0.1,0.5,0.2,0.7
	c0.1,0.2,0.2,0.4,0.3,0.6C0.9,8,1,8.2,1.1,8.3c0.1,0.1,0.3,0.3,0.5,0.4C1.8,8.9,1.9,9,2.1,9.1c0.1,0.1,0.3,0.2,0.5,0.3
	C2.8,9.5,3,9.6,3.2,9.7c0.1,0.1,0.3,0.1,0.5,0.3c0.3,0.1,0.6,0.3,0.7,0.3c0.2,0.1,0.4,0.2,0.6,0.3c0.2,0.1,0.4,0.3,0.5,0.4
	c0.1,0.1,0.2,0.3,0.3,0.5C6,11.6,6,11.9,6,12.1c0,0.6-0.2,1.1-0.6,1.4c-0.4,0.3-0.8,0.5-1.3,0.5c-0.2,0-0.5,0-0.7-0.1
	c-0.8-0.2-1.5-0.6-2.2-1.3l0,0c0,0,0,0-0.1,0c0,0,0,0,0,0c-0.1,0-0.1,0-0.1,0.1L0,13.9C0,14,0,14,0,14.1c0,0,0.1,0.1,0.1,0.2
	c0.1,0.1,0.2,0.2,0.4,0.4C0.8,14.8,1,15,1.2,15.1c0.2,0.1,0.5,0.3,0.9,0.4c0.4,0.1,0.7,0.2,1.1,0.3l0.1,0v1.9c0,0,0,0.1,0,0.1
	c0,0,0.1,0.1,0.1,0.1h1.2c0.1,0,0.1,0,0.1,0c0,0,0-0.1,0-0.1v-1.9l0.1,0c0.9-0.2,1.6-0.6,2.2-1.3C7.7,13.8,8,13,8,12
	C8,11.6,8,11.3,7.9,11z"  fill="#FF5959" />
</svg>
