<?xml version="1.0" encoding="utf-8"?>
<!-- Generator: Adobe Illustrator 22.1.0, SVG Export Plug-In . SVG Version: 6.00 Build 0)  -->
<svg version="1.1" id="Layer_1" xmlns="http://www.w3.org/2000/svg" xmlns:xlink="http://www.w3.org/1999/xlink" x="0px" y="0px"
	 viewBox="0 0 12 10" style="enable-background:new 0 0 12 10;" xml:space="preserve">
<style type="text/css">
	.st0{fill-rule:evenodd;clip-rule:evenodd;}
</style>
<path d="M11.8,1.4l-1.1-1.1C10.6,0.1,10.4,0,10.2,0C10,0,9.8,0.1,9.7,0.2L4.6,5.8L2.3,3.3C2.2,3.1,2,3,1.8,3C1.6,3,1.4,3.1,1.3,3.3
	L0.2,4.4C0.1,4.6,0,4.8,0,5c0,0.2,0.1,0.4,0.2,0.6l2.8,3l1.1,1.1C4.2,9.9,4.4,10,4.6,10C4.8,10,5,9.9,5.1,9.8l1.1-1.1l5.6-6.1
	C11.9,2.4,12,2.2,12,2C12,1.7,11.9,1.5,11.8,1.4z"  fill="#FF5959" />
</svg>
