<?xml version="1.0" encoding="utf-8"?>
<!-- Generator: Adobe Illustrator 22.1.0, SVG Export Plug-In . SVG Version: 6.00 Build 0)  -->
<svg version="1.1" id="Layer_1" xmlns="http://www.w3.org/2000/svg" xmlns:xlink="http://www.w3.org/1999/xlink" x="0px" y="0px"
	 viewBox="0 0 24 24" style="enable-background:new 0 0 24 24;" xml:space="preserve">
<style type="text/css">
	.st0{fill-rule:evenodd;clip-rule:evenodd;}
</style>
<path d="M16.5,0h-9C3.4,0,0,3.4,0,7.5v9C0,20.6,3.4,24,7.5,24h9c4.1,0,7.5-3.4,7.5-7.5v-9C24,3.4,20.6,0,16.5,0z M21.8,16.5
	c0,2.9-2.4,5.3-5.3,5.3h-9c-2.9,0-5.3-2.4-5.3-5.3v-9c0-2.9,2.4-5.3,5.3-5.3h9c2.9,0,5.3,2.4,5.3,5.3V16.5z M12,6c-3.3,0-6,2.7-6,6
	c0,3.3,2.7,6,6,6s6-2.7,6-6C18,8.7,15.3,6,12,6z M12,15.8c-2.1,0-3.8-1.7-3.8-3.8c0-2.1,1.7-3.8,3.8-3.8s3.8,1.7,3.8,3.8
	C15.8,14.1,14.1,15.8,12,15.8z M19.2,5.6c0,0.4-0.4,0.8-0.8,0.8S17.7,6,17.7,5.6c0-0.4,0.4-0.8,0.8-0.8S19.2,5.1,19.2,5.6z"  fill="#FF5959" />
</svg>
