<?xml version="1.0" encoding="utf-8"?>
<!-- Generator: Adobe Illustrator 22.1.0, SVG Export Plug-In . SVG Version: 6.00 Build 0)  -->
<svg version="1.1" id="Layer_1" xmlns="http://www.w3.org/2000/svg" xmlns:xlink="http://www.w3.org/1999/xlink" x="0px" y="0px"
	 viewBox="0 0 28 27" style="enable-background:new 0 0 28 27;" xml:space="preserve">
<style type="text/css">
	.st0{fill-rule:evenodd;clip-rule:evenodd;}
</style>
<path d="M5.5,9.5v16.5c0,0.5-0.4,0.9-0.9,0.9H0.9C0.4,27,0,26.6,0,26.1V9.5C0,9,0.4,8.6,0.9,8.6h3.7C5.1,8.6,5.5,9,5.5,9.5z
	 M25.7,8.6c-0.1,0-7,0-7,0l1-2.6c0.7-1.8,0.2-4.6-1.6-5.6c-0.6-0.3-1.4-0.5-2.1-0.3c-0.4,0.1-0.7,0.4-0.9,0.7
	c-0.2,0.4-0.2,0.9-0.3,1.3c-0.2,1.1-0.7,2.2-1.6,3c-1.4,1.4-5.8,5.4-5.8,5.4v14.7h15.2c2.1,0,3.4-2.3,2.4-4.1
	c1.2-0.8,1.6-2.4,0.9-3.7c1.2-0.8,1.6-2.4,0.9-3.7C28.9,12.4,28.2,9,25.7,8.6z"  fill="#c3cfd7" />
</svg>
