<?xml version="1.0" encoding="utf-8"?>
<!-- Generator: Adobe Illustrator 22.1.0, SVG Export Plug-In . SVG Version: 6.00 Build 0)  -->
<svg version="1.1" id="Layer_1" xmlns="http://www.w3.org/2000/svg" xmlns:xlink="http://www.w3.org/1999/xlink" x="0px" y="0px"
	 viewBox="0 0 20 13" style="enable-background:new 0 0 20 13;" xml:space="preserve">
<style type="text/css">
	.st0{fill-rule:evenodd;clip-rule:evenodd;}
</style>
<path d="M9.3,8l-9-7.7C0.5,0.1,0.7,0,0.9,0h18.1c0.2,0,0.5,0.1,0.6,0.3l-9,7.7C10.3,8.3,9.7,8.3,9.3,8z M20,1.3V12
	c0,0.5-0.4,1-0.9,1H0.9C0.4,13,0,12.6,0,12V1.3l9.3,8c0.4,0.3,1,0.3,1.4,0L20,1.3z M5.8,7.3c-0.2-0.2-0.4-0.2-0.6,0l-4.4,4.3
	c-0.2,0.2-0.2,0.4,0,0.6c0.1,0.1,0.2,0.1,0.3,0.1c0.1,0,0.2,0,0.3-0.1l4.4-4.3C5.9,7.7,5.9,7.4,5.8,7.3z M19.2,11.6l-4.4-4.3
	c-0.2-0.2-0.4-0.1-0.6,0c-0.1,0.2-0.1,0.4,0,0.6l4.4,4.3c0.1,0.1,0.2,0.1,0.3,0.1c0.1,0,0.2,0,0.3-0.1C19.3,12,19.3,11.7,19.2,11.6z
	"  fill="#FF5959" />
</svg>
