<?xml version="1.0" encoding="utf-8"?>
<!-- Generator: Adobe Illustrator 22.1.0, SVG Export Plug-In . SVG Version: 6.00 Build 0)  -->
<svg version="1.1" id="Layer_1" xmlns="http://www.w3.org/2000/svg" xmlns:xlink="http://www.w3.org/1999/xlink" x="0px" y="0px"
	 viewBox="0 0 14 15" style="enable-background:new 0 0 14 15;" xml:space="preserve">
<style type="text/css">
	.st0{fill-rule:evenodd;clip-rule:evenodd;}
</style>
<path d="M13.3,10.4c-1.4-0.7-3-1.1-4.5-1.3C8.8,8.7,8.8,8.3,8.9,8c0.3-0.2,0.6-0.6,0.6-0.8c0-0.3,0.1-0.7,0.1-1
	c0,0.1,0.1,0.1,0.2,0.1c0.2,0,0.3-0.1,0.3-0.3l0.2-1.6c0-0.2-0.1-0.3-0.3-0.3C10,4,9.9,4,9.9,4c0-0.3,0.1-0.6,0.1-0.9
	c0-0.4,0.2-1.5-0.6-2.3c-1.2-1.1-3.7-1.1-4.8,0C3.8,1.6,4,2.7,4,3.1c0,0.3,0.1,0.6,0.1,0.9C4.1,4,4,4,3.9,4C3.8,4,3.7,4.2,3.7,4.3
	l0.2,1.6c0,0.2,0.2,0.3,0.3,0.3c0.1,0,0.1,0,0.2-0.1c0,0.3,0.1,0.7,0.1,1c0,0.3,0.3,0.6,0.6,0.8c0.1,0.4,0.1,0.7,0.2,1.1
	c-1.6,0.2-3.1,0.6-4.5,1.3C0.3,10.6,0,11.3,0,11.8c0.1,0.6,0.1,1.1,0.2,1.7c0,0.5,0.5,1,0.9,1.1c3.9,0.6,7.9,0.6,11.8,0
	c0.5-0.1,0.9-0.6,0.9-1.1c0.1-0.6,0.1-1.1,0.2-1.7C14,11.3,13.7,10.6,13.3,10.4z"  fill="#c6c8cb" />
</svg>
