<?xml version="1.0" encoding="utf-8"?>
<!-- Generator: Adobe Illustrator 22.1.0, SVG Export Plug-In . SVG Version: 6.00 Build 0)  -->
<svg version="1.1" id="Layer_1" xmlns="http://www.w3.org/2000/svg" xmlns:xlink="http://www.w3.org/1999/xlink" x="0px" y="0px"
	 viewBox="0 0 19 26" style="enable-background:new 0 0 19 26;" xml:space="preserve">
<style type="text/css">
	.st0{fill-rule:evenodd;clip-rule:evenodd;}
</style>
<path d="M9.5,0C4.3,0,0,4.3,0,9.6c0,1.4,0.3,2.7,0.8,3.9c2.4,5.2,6.9,10.8,8.3,12.3C9.2,25.9,9.3,26,9.5,26c0.2,0,0.3-0.1,0.4-0.2
	c1.3-1.6,5.9-7.1,8.3-12.3c0.6-1.2,0.8-2.5,0.8-3.9C19,4.3,14.7,0,9.5,0z M9.5,14.5c-2.7,0-4.9-2.2-4.9-5c0-2.7,2.2-5,4.9-5
	c2.7,0,4.9,2.2,4.9,5C14.4,12.3,12.2,14.5,9.5,14.5z"  fill="#b2b2b2" />
</svg>
