<?xml version="1.0" encoding="utf-8"?>
<!-- Generator: Adobe Illustrator 22.1.0, SVG Export Plug-In . SVG Version: 6.00 Build 0)  -->
<svg version="1.1" id="Layer_1" xmlns="http://www.w3.org/2000/svg" xmlns:xlink="http://www.w3.org/1999/xlink" x="0px" y="0px"
	 viewBox="0 0 33 33" style="enable-background:new 0 0 33 33;" xml:space="preserve">
<style type="text/css">
	.st0{fill-rule:evenodd;clip-rule:evenodd;}
</style>
<path d="M25.1,8.7c0-4.8-3.9-8.7-8.6-8.7c-4.8,0-8.6,3.9-8.6,8.7c0,6.9,8.6,17,8.6,17S25.1,15.5,25.1,8.7z M12.2,8.2
	c0-2.4,1.9-4.3,4.3-4.3c2.4,0,4.3,1.9,4.3,4.3c0,2.4-1.9,4.3-4.3,4.3C14.1,12.5,12.2,10.5,12.2,8.2z M16.5,10.3
	c-1.2,0-2.1-0.9-2.1-2.1c0-1.2,0.9-2.1,2.1-2.1c1.2,0,2.1,0.9,2.1,2.1C18.6,9.3,17.7,10.3,16.5,10.3z M33,27.7
	c0,2.9-7.4,5.3-16.5,5.3C7.4,33,0,30.6,0,27.7c0-2.4,4.9-4.4,11.6-5c0.7,1,1.4,1.9,1.9,2.6c-5.5,0.3-9,1.5-10.4,2.4
	c1.6,1,6.2,2.5,13.3,2.5c7.1,0,11.8-1.5,13.3-2.5c-1.3-0.9-4.9-2.1-10.4-2.4c0.6-0.7,1.2-1.6,1.9-2.6C28.1,23.4,33,25.4,33,27.7z"  fill="#c3cfd7" />
</svg>
