<?xml version="1.0" encoding="utf-8"?>
<!-- Generator: Adobe Illustrator 22.1.0, SVG Export Plug-In . SVG Version: 6.00 Build 0)  -->
<svg version="1.1" id="Layer_1" xmlns="http://www.w3.org/2000/svg" xmlns:xlink="http://www.w3.org/1999/xlink" x="0px" y="0px"
	 viewBox="0 0 24 14" style="enable-background:new 0 0 24 14;" xml:space="preserve">
<style type="text/css">
	.st0{fill-rule:evenodd;clip-rule:evenodd;}
</style>
<path d="M24,7c0,0.5-0.4,0.8-1,0.8H1C0.4,7.8,0,7.5,0,7s0.4-0.8,1-0.8H23C23.6,6.2,24,6.5,24,7z M1,1.6H23c0.5,0,1-0.4,1-0.8
	C24,0.4,23.6,0,23,0H1C0.4,0,0,0.4,0,0.8C0,1.3,0.4,1.6,1,1.6z M23,12.4H1c-0.5,0-1,0.4-1,0.8C0,13.6,0.4,14,1,14H23
	c0.5,0,1-0.4,1-0.8C24,12.7,23.6,12.4,23,12.4z"  fill="#FF5959" />
</svg>
