<?xml version="1.0" encoding="utf-8"?>
<!-- Generator: Adobe Illustrator 22.1.0, SVG Export Plug-In . SVG Version: 6.00 Build 0)  -->
<svg version="1.1" id="Layer_1" xmlns="http://www.w3.org/2000/svg" xmlns:xlink="http://www.w3.org/1999/xlink" x="0px" y="0px"
	 viewBox="0 0 16 27" style="enable-background:new 0 0 16 27;" xml:space="preserve">
<style type="text/css">
	.st0{fill-rule:evenodd;clip-rule:evenodd;}
</style>
<path d="M14.1,0H1.9C0.8,0,0,0.8,0,1.8v23.4c0,1,0.8,1.8,1.9,1.8h12.3c1,0,1.9-0.8,1.9-1.8V1.8C16,0.8,15.2,0,14.1,0z M6,1.3H10
	c0.1,0,0.2,0.1,0.2,0.2c0,0.1-0.1,0.2-0.2,0.2H6c-0.1,0-0.2-0.1-0.2-0.2C5.8,1.4,5.9,1.3,6,1.3z M8,26.1c-0.5,0-0.9-0.4-0.9-0.9
	c0-0.5,0.4-0.9,0.9-0.9s0.9,0.4,0.9,0.9C8.9,25.7,8.5,26.1,8,26.1z M14.7,23.6H1.3V2.9h13.4V23.6z"  fill="#b2b2b2" />
</svg>
