<?xml version="1.0" encoding="utf-8"?>
<!-- Generator: Adobe Illustrator 22.1.0, SVG Export Plug-In . SVG Version: 6.00 Build 0)  -->
<svg version="1.1" id="Layer_1" xmlns="http://www.w3.org/2000/svg" xmlns:xlink="http://www.w3.org/1999/xlink" x="0px" y="0px"
	 viewBox="0 0 20 7" style="enable-background:new 0 0 20 7;" xml:space="preserve">
<style type="text/css">
	.st0{fill-rule:evenodd;clip-rule:evenodd;}
</style>
<path d="M5.1,0.7v5.6c0,0.4-0.2,0.6-0.5,0.7C4.4,6.9,4.2,6.9,4,6.6L1.1,2.4v3.8c0,0.4-0.2,0.7-0.5,0.7C0.3,6.9,0,6.7,0,6.3V0.8
	c0-0.4,0.1-0.7,0.5-0.7c0.3,0,0.4,0.1,0.6,0.3L4,4.5V0.7C4,0.4,4.2,0,4.5,0C4.8,0,5.1,0.4,5.1,0.7z M10.1,5.6H7.5V4.2h2.2
	c0.8,0,0.8-1.3,0-1.3H7.5V1.4h2.5c0.8,0,0.8-1.3,0-1.3H6.9c-0.3,0-0.5,0.3-0.5,0.6v5.6c0,0.3,0.2,0.6,0.5,0.6h3.2
	C10.9,6.9,10.9,5.6,10.1,5.6z M18.9,0.5l-1.3,4.1l-1.5-4.1c-0.2-0.6-0.8-0.6-1,0l-1.5,4.1l-1.3-4.1C12.1-0.3,11,0,11.3,0.9L13,6.3
	C13.1,6.8,13.2,7,13.5,7c0.3,0,0.5-0.2,0.6-0.7l1.4-3.9l1.5,3.9C17.3,6.8,17.4,7,17.7,7c0.3,0,0.4-0.2,0.6-0.7L20,0.9
	C20.2,0.1,19.2-0.3,18.9,0.5z" fill="#FF5959" />
</svg>
