<?xml version="1.0" encoding="utf-8"?>
<!-- Generator: Adobe Illustrator 22.1.0, SVG Export Plug-In . SVG Version: 6.00 Build 0)  -->
<svg version="1.1" id="Layer_1" xmlns="http://www.w3.org/2000/svg" xmlns:xlink="http://www.w3.org/1999/xlink" x="0px" y="0px"
	 viewBox="0 0 42 42" style="enable-background:new 0 0 42 42;" xml:space="preserve">
<style type="text/css">
	.st0{fill-rule:evenodd;clip-rule:evenodd;}
</style>
<path d="M39.3,3.7H14.6V2.7c0-1.5-1.2-2.7-2.7-2.7H2.7C1.2,0,0,1.2,0,2.7v31c0,1.5,1.2,2.7,2.7,2.7h6.7l-2.1,4.2
	c-0.2,0.3-0.1,0.8,0.2,1c0.3,0.3,0.7,0.4,1,0.2L21,36.6l12.4,5.3c0.1,0.1,0.2,0.1,0.4,0.1c0.2,0,0.5-0.1,0.7-0.3
	c0.3-0.3,0.3-0.7,0.2-1l-2.1-4.2h6.7c1.5,0,2.7-1.2,2.7-2.7V6.4C42,4.9,40.8,3.7,39.3,3.7z M20.1,35l-9.9,4.3l9.9-19.9V35z M21.9,35
	V19.4l9.9,19.9L21.9,35z M40.2,33.8c0,0.5-0.4,0.9-0.9,0.9h-7.7l-9.8-19.6c0-0.1-0.1-0.1-0.1-0.2c-0.2-0.2-0.4-0.3-0.7-0.3
	s-0.5,0.1-0.7,0.3c-0.1,0.1-0.1,0.1-0.1,0.2l-9.8,19.6H2.7c-0.5,0-0.9-0.4-0.9-0.9v-31c0-0.5,0.4-0.9,0.9-0.9h9.1
	c0.5,0,0.9,0.4,0.9,0.9v1.8V10c0,0.5,0.4,0.9,0.9,0.9h26.5V33.8z M40.2,9.1H14.6V5.5h24.7c0.5,0,0.9,0.4,0.9,0.9V9.1z"  fill="#FF5959" />
</svg>
