<?xml version="1.0" encoding="utf-8"?>
<!-- Generator: Adobe Illustrator 22.1.0, SVG Export Plug-In . SVG Version: 6.00 Build 0)  -->
<svg version="1.1" id="Layer_1" xmlns="http://www.w3.org/2000/svg" xmlns:xlink="http://www.w3.org/1999/xlink" x="0px" y="0px"
	 viewBox="0 0 48 38" style="enable-background:new 0 0 48 38;" xml:space="preserve">
<style type="text/css">
	.st0{fill-rule:evenodd;clip-rule:evenodd;}
</style>
<path d="M47.6,16.2l-0.1-6c-0.1-3.2-3.3-3-3.3-3L31.5,7.6l0-1.5c-0.2-6.6-6.5-6-6.5-6l-3,0.1c-6.7,0.2-6.2,6.4-6.2,6.4l0,1.5L3,8.3
	c-3.2,0.1-3,3.2-3,3.2l0.2,6c0,0,13.6,4.5,23.7,4.2C34.9,21.4,47.6,16.2,47.6,16.2z M19.9,6.2C19.8,3.1,23.5,3,23.5,3
	C27.3,2.9,27.3,6,27.3,6l0,1.5l-7.4,0.2L19.9,6.2z M19.9,17.7l7.8-0.2l0.1,2.9L20,20.6L19.9,17.7z M48,33.8l-0.4-15.4
	c0,0-10.2,4.9-23.8,5.2C11.4,24,0.2,19.5,0.2,19.5L0.6,35c0.1,3.1,3.1,3,3.1,3l41.1-1C48.3,36.9,48,33.8,48,33.8z M28,26.2
	c0,1.1-0.8,1.9-1.9,2l-3.9,0.1c-1.1,0-2-0.8-2-1.9l0-2l7.8-0.2L28,26.2z"  fill="#c3cfd7" />
</svg>
