<?xml version="1.0" encoding="utf-8"?>
<!-- Generator: Adobe Illustrator 22.1.0, SVG Export Plug-In . SVG Version: 6.00 Build 0)  -->
<svg version="1.1" id="Layer_1" xmlns="http://www.w3.org/2000/svg" xmlns:xlink="http://www.w3.org/1999/xlink" x="0px" y="0px"
	 viewBox="0 0 49 50" style="enable-background:new 0 0 49 50;" xml:space="preserve">
<style type="text/css">
	.st0{fill-rule:evenodd;clip-rule:evenodd;}
</style>
<path d="M17.9,22.8c-1.2,0-2.1-0.9-2.1-2.1s0.9-2.1,2.1-2.1c1.2,0,2.1,0.9,2.1,2.1S19,22.8,17.9,22.8z M31.1,27.1
	c-1.2,0-2.1,0.9-2.1,2.1s0.9,2.1,2.1,2.1c1.2,0,2.1-0.9,2.1-2.1S32.3,27.1,31.1,27.1z M47.3,32.5l-1.1,0.6c-1.2,0.7-1.9,2.1-1.6,3.4
	l0.2,1.3c0.4,1.9-1.1,3.7-3,3.8l-1.3,0.1c-1.4,0.1-2.6,1-3,2.4l-0.3,1.2c-0.5,1.9-2.6,2.9-4.4,2.2L31.7,47c-1.3-0.5-2.8-0.2-3.7,0.9
	l-0.8,1c-1.3,1.5-3.6,1.5-4.9,0l-0.9-1c-0.9-1-2.4-1.4-3.7-0.8l-1.2,0.5c-1.8,0.8-3.9-0.2-4.4-2.1l-0.4-1.2c-0.4-1.3-1.6-2.3-3-2.3
	l-1.3-0.1c-2-0.1-3.4-1.9-3.1-3.8l0.2-1.3c0.2-1.4-0.4-2.8-1.7-3.4l-1.1-0.6c-1.7-0.9-2.3-3.2-1.1-4.8l0.7-1c0.8-1.1,0.8-2.7,0-3.8
	l-0.8-1c-1.2-1.6-0.7-3.8,1-4.8l1.1-0.6c1.2-0.7,1.9-2.1,1.6-3.4l-0.2-1.3c-0.4-1.9,1.1-3.7,3-3.8l1.3-0.1c1.4-0.1,2.6-1,3-2.4
	l0.3-1.2c0.5-1.9,2.6-2.9,4.4-2.2L17.3,3c1.3,0.5,2.8,0.2,3.7-0.9l0.8-1c1.3-1.5,3.6-1.5,4.9,0l0.9,1c0.9,1,2.4,1.4,3.7,0.8l1.2-0.5
	c1.8-0.8,3.9,0.2,4.4,2.1l0.4,1.2c0.4,1.3,1.6,2.3,3,2.3l1.3,0.1c2,0.1,3.4,1.9,3.1,3.8l-0.2,1.3c-0.2,1.4,0.4,2.8,1.7,3.4l1.1,0.6
	c1.7,0.9,2.3,3.2,1.1,4.8l-0.7,1c-0.8,1.1-0.8,2.7,0,3.8l0.8,1C49.5,29.3,49,31.6,47.3,32.5z M17.8,25.8c2.8,0,5-2.3,5-5s-2.3-5-5-5
	c-2.8,0-5,2.3-5,5C12.8,23.5,15.1,25.8,17.8,25.8z M32,17.8c0.4-0.5,0.4-1.3-0.2-1.7c-0.5-0.4-1.3-0.4-1.7,0.2L16.9,32.2
	c-0.4,0.5-0.4,1.3,0.2,1.7s1.3,0.4,1.7-0.2L32,17.8z M36.2,29.2c0-2.8-2.3-5-5-5c-2.8,0-5,2.3-5,5s2.3,5,5,5
	C33.9,34.3,36.2,32,36.2,29.2z"  fill="#FF5959" />
</svg>
