<?xml version="1.0" encoding="utf-8"?>
<!-- Generator: Adobe Illustrator 22.1.0, SVG Export Plug-In . SVG Version: 6.00 Build 0)  -->
<svg version="1.1" id="Layer_1" xmlns="http://www.w3.org/2000/svg" xmlns:xlink="http://www.w3.org/1999/xlink" x="0px" y="0px"
	 viewBox="0 0 11 14" style="enable-background:new 0 0 11 14;" xml:space="preserve">
<style type="text/css">
	.st0{fill-rule:evenodd;clip-rule:evenodd;}
</style>
<path d="M2.7,5.3c1.5,0,2.7-1.2,2.7-2.6S4.3,0,2.7,0C1.2,0,0,1.2,0,2.6S1.2,5.3,2.7,5.3z M2.7,1.8c0.5,0,0.9,0.4,0.9,0.9
	S3.3,3.5,2.7,3.5S1.8,3.1,1.8,2.6S2.2,1.8,2.7,1.8z M8.2,8.8c-1.5,0-2.7,1.2-2.7,2.6S6.7,14,8.2,14c1.5,0,2.7-1.2,2.7-2.6
	S9.8,8.8,8.2,8.8z M8.2,12.3c-0.5,0-0.9-0.4-0.9-0.9s0.4-0.9,0.9-0.9s0.9,0.4,0.9,0.9S8.8,12.3,8.2,12.3z M10.8,1.4L1.7,13.6
	C1.5,13.9,1.2,14,0.9,14c-0.2,0-0.4-0.1-0.5-0.2C0,13.6-0.1,13,0.2,12.6L9.3,0.4c0.3-0.4,0.9-0.5,1.3-0.2S11.1,1,10.8,1.4z"  fill="#FF5959" />
</svg>
