<?xml version="1.0" encoding="utf-8"?>
<!-- Generator: Adobe Illustrator 22.1.0, SVG Export Plug-In . SVG Version: 6.00 Build 0)  -->
<svg version="1.1" id="Layer_1" xmlns="http://www.w3.org/2000/svg" xmlns:xlink="http://www.w3.org/1999/xlink" x="0px" y="0px"
	 viewBox="0 0 50 47" style="enable-background:new 0 0 50 47;" xml:space="preserve">
<style type="text/css">
	.st0{fill-rule:evenodd;clip-rule:evenodd;}
</style>
<path d="M50,19.2c0,5.6-2.4,10.7-6.2,14.2L30.9,46.5v-8.1c-10.3-0.1-18.6-8.7-18.6-19.1C12.4,8.6,20.8,0,31.2,0
	C41.6,0,50,8.6,50,19.2z M15.4,37.7v-2.3l-1.9,0c-5.4-0.1-9.7-4.6-9.7-10c0-4.5,2.9-8.3,6.9-9.6c0.2-1.4,0.6-2.8,1.1-4.2
	C5.2,12.5,0,18.3,0,25.3C0,32.2,5,38,11.6,39v8l9.4-9.5c-1.1-0.7-2.2-1.4-3.2-2.3L15.4,37.7z"  fill="#FF5959" />
</svg>
