<?xml version="1.0" encoding="utf-8"?>
<!-- Generator: Adobe Illustrator 22.1.0, SVG Export Plug-In . SVG Version: 6.00 Build 0)  -->
<svg version="1.1" id="Layer_1" xmlns="http://www.w3.org/2000/svg" xmlns:xlink="http://www.w3.org/1999/xlink" x="0px" y="0px"
	 viewBox="0 0 10 14" style="enable-background:new 0 0 10 14;" xml:space="preserve">
<style type="text/css">
	.st0{fill-rule:evenodd;clip-rule:evenodd;}
</style>
<path d="M9.4,1.8C9,1.2,8.4,0.7,7.6,0.4C7.2,0.3,6.8,0.2,6.3,0.1C5.8,0,5.3,0,4.8,0H1.1v6.6H0v1.6h1.1v1.3h-1v1.6h1V14h1.8v-2.8h3.7
	V9.6H2.9V8.3c1.4,0.1,2.7,0,3.7-0.2c0.7-0.2,1.3-0.5,1.8-0.8c0.5-0.4,0.9-0.8,1.2-1.4C9.9,5.4,10,4.7,10,4C10,3.1,9.8,2.4,9.4,1.8z
	 M7.9,5.1C7.8,5.5,7.5,5.7,7.2,6C6.9,6.2,6.5,6.4,6,6.5C5.5,6.6,4.8,6.7,4.1,6.7c-0.2,0-0.4,0-0.7,0c-0.2,0-0.4,0-0.6-0.1V1.7h1.7
	c0.5,0,0.9,0,1.2,0.1c0.4,0,0.7,0.1,0.9,0.2c0.4,0.2,0.8,0.4,1,0.7C8,3.1,8.1,3.5,8.1,4C8.1,4.4,8.1,4.8,7.9,5.1z"  fill="#FF5959" />
</svg>
