<?xml version="1.0" encoding="utf-8"?>
<!-- Generator: Adobe Illustrator 22.1.0, SVG Export Plug-In . SVG Version: 6.00 Build 0)  -->
<svg version="1.1" id="Layer_1" xmlns="http://www.w3.org/2000/svg" xmlns:xlink="http://www.w3.org/1999/xlink" x="0px" y="0px"
	 viewBox="0 0 47 55" style="enable-background:new 0 0 47 55;" xml:space="preserve">
<style type="text/css">
	.st0{fill-rule:evenodd;clip-rule:evenodd;}
</style>
<path d="M23.5,17C17.7,17,13,21.7,13,27.5C13,33.3,17.7,38,23.5,38C29.3,38,34,33.3,34,27.5C34,21.7,29.3,17,23.5,17z M29.7,25.5
	L22.2,33c-0.3,0.3-0.7,0.5-1.1,0.5c-0.4,0-0.8-0.2-1.1-0.5L17,30.2c-0.6-0.6-0.6-1.7,0-2.3c0.6-0.6,1.7-0.6,2.3,0l1.7,1.7l6.4-6.4
	c0.6-0.6,1.7-0.6,2.3,0C30.4,23.9,30.4,24.9,29.7,25.5z M46.9,14.9L46.9,14.9c0-0.6,0-1.1-0.1-1.8c0-3-2.5-5.5-5.5-5.7
	C35,7.1,30.1,5,25.9,1l0,0c-1.4-1.3-3.4-1.3-4.8,0l0,0C16.9,5,12,7.1,5.6,7.5c-3,0.2-5.5,2.7-5.5,5.7c0,0.6,0,1.2,0,1.7l0,0.1
	c-0.1,6.4-0.3,14.5,2.4,21.8c1.5,4,3.7,7.5,6.7,10.3c3.4,3.3,7.7,5.8,13,7.7c0.2,0.1,0.4,0.1,0.5,0.1C23,55,23.2,55,23.5,55
	s0.5,0,0.8-0.1c0.2,0,0.4-0.1,0.5-0.1c5.3-1.8,9.7-4.4,13-7.7c2.9-2.9,5.2-6.3,6.7-10.4C47.2,29.4,47.1,21.4,46.9,14.9z M23.5,41.2
	c-7.6,0-13.8-6.1-13.8-13.7c0-7.6,6.2-13.7,13.8-13.7c7.6,0,13.8,6.1,13.8,13.7C37.3,35.1,31.1,41.2,23.5,41.2z"  fill="#FF5959" />
</svg>
