<?xml version="1.0" encoding="utf-8"?>
<!-- Generator: Adobe Illustrator 22.1.0, SVG Export Plug-In . SVG Version: 6.00 Build 0)  -->
<svg version="1.1" id="Layer_1" xmlns="http://www.w3.org/2000/svg" xmlns:xlink="http://www.w3.org/1999/xlink" x="0px" y="0px"
	 viewBox="0 0 15 14" style="enable-background:new 0 0 15 14;" xml:space="preserve">
<style type="text/css">
	.st0{fill-rule:evenodd;clip-rule:evenodd;}
</style>
<path d="M15,5.3c0-0.1-0.1-0.2-0.2-0.2L9.9,4.5L7.7,0.1C7.7,0.1,7.6,0,7.5,0C7.4,0,7.3,0.1,7.3,0.1L5.1,4.5L0.2,5.1
	C0.1,5.2,0,5.2,0,5.3c0,0.1,0,0.2,0.1,0.3L3.6,9l-0.8,4.7c0,0.1,0,0.2,0.1,0.3C3,14,3.1,14,3.2,14l4.3-2.2l4.3,2.2c0,0,0.1,0,0.1,0
	c0.1,0,0.1,0,0.2-0.1c0.1-0.1,0.1-0.2,0.1-0.3L11.4,9l3.5-3.4C15,5.5,15,5.4,15,5.3z"  fill="#FF5959" />
</svg>
