<?xml version="1.0" encoding="utf-8"?>
<!-- Generator: Adobe Illustrator 22.1.0, SVG Export Plug-In . SVG Version: 6.00 Build 0)  -->
<svg version="1.1" id="Layer_1" xmlns="http://www.w3.org/2000/svg" xmlns:xlink="http://www.w3.org/1999/xlink" x="0px" y="0px"
	 viewBox="0 0 16 15" style="enable-background:new 0 0 16 15;" xml:space="preserve">
<style type="text/css">
	.st0{fill-rule:evenodd;clip-rule:evenodd;}
</style>
<path d="M15.4,0L0.3,6.3c-0.4,0.2-0.4,0.7,0,0.9L4,8.7l1.4,4.9c0.1,0.3,0.5,0.4,0.7,0.2L8.1,12c0.2-0.2,0.5-0.2,0.7,0l3.7,2.9
	c0.3,0.2,0.6,0,0.7-0.3L16,0.6C16.1,0.2,15.7-0.1,15.4,0z M12.5,3.3l-5.9,6c-0.2,0.2-0.3,0.5-0.4,0.8L6,11.7c0,0.2-0.3,0.2-0.4,0
	L4.8,8.8c-0.1-0.3,0-0.7,0.3-0.9l7.2-4.8C12.5,3,12.6,3.2,12.5,3.3z"  fill="#FF5959" />
</svg>
