<?xml version="1.0" encoding="utf-8"?>
<!-- Generator: Adobe Illustrator 22.1.0, SVG Export Plug-In . SVG Version: 6.00 Build 0)  -->
<svg version="1.1" id="Layer_1" xmlns="http://www.w3.org/2000/svg" xmlns:xlink="http://www.w3.org/1999/xlink" x="0px" y="0px"
	 viewBox="0 0 23 22" style="enable-background:new 0 0 23 22;" xml:space="preserve">
<style type="text/css">
	.st0{fill-rule:evenodd;clip-rule:evenodd;}
</style>
<path d="M22.1,0L0.4,9.3c-0.5,0.2-0.5,1.1,0,1.3l5.3,2.2L7.8,20c0.1,0.5,0.6,0.6,1,0.3l3-2.6c0.3-0.3,0.8-0.3,1.1,0l5.3,4.2
	c0.4,0.3,0.9,0.1,1-0.4L23,0.8C23.1,0.3,22.6-0.1,22.1,0z M18,4.9l-8.5,8.7c-0.3,0.3-0.5,0.7-0.5,1.2l-0.3,2.4c0,0.3-0.4,0.3-0.5,0
	L7,12.9c-0.1-0.5,0.1-1,0.5-1.3l10.4-7C18,4.4,18.2,4.7,18,4.9z"  fill="#FF5959" />
</svg>
