<?xml version="1.0" encoding="utf-8"?>
<!-- Generator: Adobe Illustrator 22.1.0, SVG Export Plug-In . SVG Version: 6.00 Build 0)  -->
<svg version="1.1" id="Layer_1" xmlns="http://www.w3.org/2000/svg" xmlns:xlink="http://www.w3.org/1999/xlink" x="0px" y="0px"
	 viewBox="0 0 17 18" style="enable-background:new 0 0 17 18;" xml:space="preserve">
<style type="text/css">
	.st0{fill-rule:evenodd;clip-rule:evenodd;}
</style>
<path d="M10.8,6.3c-0.2-0.4-0.6-0.7-1-0.9C9.6,5.2,9.3,5.1,9.1,5.1c-0.1,0-0.2,0-0.4,0C8.6,5,8.5,4.9,8.5,4.8c0-0.1,0.1-0.2,0.2-0.2
	c0.5,0,0.9,0.1,1.3,0.4c0.9,0.5,1.3,1.2,1.5,2.2c0,0,0,0.1,0,0.1c0,0.1,0,0.2,0,0.4c0,0,0,0.1,0,0.1c-0.1,0.2-0.4,0.2-0.4,0
	c0-0.1,0-0.1,0-0.2C11.1,7.1,11.1,6.7,10.8,6.3z M10.4,7.5C10.4,7.5,10.4,7.5,10.4,7.5c0.1,0,0.2-0.1,0.2-0.2c0-0.1,0-0.1,0-0.2
	c-0.1-1-0.7-1.4-1.4-1.4C9,5.7,8.8,5.8,8.8,5.9c0,0.1,0.1,0.2,0.2,0.3c0.1,0,0.3,0,0.4,0.1c0.1,0,0.2,0.1,0.3,0.1
	C9.9,6.5,10,6.7,10,6.9c0,0.1,0,0.2,0,0.3C10.1,7.4,10.2,7.5,10.4,7.5C10.3,7.5,10.3,7.5,10.4,7.5z M8.5,3.4
	C8.6,3.4,10.5,3.5,8.5,3.4c0,0-0.1,0-0.1,0c-0.1,0-0.3,0.1-0.2,0.3c0,0.2,0.2,0.2,0.4,0.2C8.7,4,9,4,9.2,4c1.5,0.3,2.7,1.6,3,3.1
	c0,0.3,0.1,0.6,0.1,0.9c0,0.2,0.1,0.3,0.2,0.3c0.2,0,0.2-0.1,0.2-0.3c0-0.4,0-0.7-0.1-1.1C12.3,4.9,10.6,3.5,8.5,3.4z M16.6,11.5
	L16.6,11.5c-0.4,1.7-2.3,3.5-4,3.9l0,0c-1.4,0.3-2.8,0.4-4.1,0.4c-0.4,0-0.8,0-1.2,0l-1.9,2c-0.5,0.5-1.3,0.2-1.3-0.5v-1.9
	c-1.6-0.5-3.3-2.2-3.7-3.8l0,0c-0.5-2.4-0.5-4.8,0-7.1l0,0c0.4-1.7,2.3-3.5,4-3.9l0,0c2.7-0.5,5.5-0.5,8.3,0l0,0
	c1.7,0.4,3.5,2.2,4,3.9l0,0C17.1,6.7,17.1,9.1,16.6,11.5z M15.1,4.7c-0.3-1.1-1.7-2.5-2.8-2.7c-2.5-0.5-5.1-0.5-7.7,0
	C3.5,2.2,2.1,3.6,1.9,4.7c-0.5,2.1-0.5,4.3,0,6.5c0.3,1.1,1.7,2.5,2.8,2.7c0,0,0,0,0,0c0,0,0.1,0.1,0.1,0.1v3.1
	c0,0.2,0.2,0.2,0.3,0.1l1.5-1.5c0,0,1.2-1.2,1.4-1.4c0,0,0,0,0.1,0c1.5,0,2.9-0.1,4.4-0.4c1.1-0.3,2.5-1.6,2.8-2.7
	C15.6,9,15.6,6.8,15.1,4.7z M11.5,10c-0.2-0.2-0.5-0.4-0.8-0.5c-0.3-0.2-0.6-0.2-0.8,0c-0.2,0.2-0.4,0.6-0.7,0.6
	c-0.2,0-0.4-0.1-0.6-0.1C7.5,9.5,6.8,8.6,6.4,7.5c-0.1-0.1,0-0.3,0-0.4c0-0.1,0.1-0.1,0.2-0.2c0.1-0.1,0.1-0.1,0.2-0.2
	c0.3-0.2,0.4-0.6,0.2-1C6.8,5.1,6.4,4.6,6,4.2C5.8,3.9,5.6,3.9,5.3,4C5,4.2,4.7,4.4,4.5,4.7C4.2,5,4,5.4,4.1,5.8
	c0.2,0.4,0.3,0.9,0.6,1.3C5.1,8,5.6,8.8,6.3,9.6c1.1,1.3,2.6,2.2,4.2,2.9c0.2,0.1,0.3,0.1,0.5,0.2c0.1,0,0.3-0.1,0.4-0.1
	c0.5-0.3,0.8-0.7,1-1.1c0.1-0.3,0-0.5-0.2-0.7C12,10.4,11.7,10.2,11.5,10z"  fill="#FF5959" />
</svg>
