<?xml version="1.0" encoding="utf-8"?>
<!-- Generator: Adobe Illustrator 22.1.0, SVG Export Plug-In . SVG Version: 6.00 Build 0)  -->
<svg version="1.1" id="Layer_1" xmlns="http://www.w3.org/2000/svg" xmlns:xlink="http://www.w3.org/1999/xlink" x="0px" y="0px"
	 viewBox="0 0 18 10" style="enable-background:new 0 0 18 10;" xml:space="preserve">
<style type="text/css">
	.st0{fill-rule:evenodd;clip-rule:evenodd;}
</style>
<path class="st0" d="M0.5,0.5c0.7,0,1.5,0,2.2,0c0.8,0,0.8,0.1,1.1,0.6C4.7,2.6,6,4.9,6.9,4.8c0-1,0-2.1,0-3.1
	c0-1.2-0.8-0.7-0.8-1.1C6.1,0.4,6.5,0,7.2,0c0.9,0,1.7,0,2.6,0c0.7,0,0.7,0.4,0.7,0.7c0,1.4,0,2.7,0,4.1c1.3-0.1,2.3-2.1,3.1-3.6
	C14,0.4,14,0.5,14.7,0.5c0.8,0,1.6,0,2.5,0c0.6,0,0.7,0.2,0.3,0.8c-0.8,1.3-1.6,2.6-2.5,3.9c-0.3,0.4-0.4,0.5,0,1.1
	C16,7.3,17,8.3,17.9,9.4C18.1,9.6,18,10,17.4,10c-1,0-2.1,0-3.1,0c-0.4,0-0.6,0-1.1-0.5c-0.8-0.8-1.5-1.7-2.6-1.8c0,0.6,0,1.2,0,1.8
	c0,0.3-0.1,0.6-0.6,0.6c-0.7,0-1.4,0-2.1,0c-2.9,0-6.3-5.9-7.7-8.8C-0.2,0.6,0.1,0.5,0.5,0.5L0.5,0.5z"  fill="#FF5959" />
</svg>
