<?xml version="1.0" encoding="utf-8"?>
<!-- Generator: Adobe Illustrator 22.1.0, SVG Export Plug-In . SVG Version: 6.00 Build 0)  -->
<svg version="1.1" id="Layer_1" xmlns="http://www.w3.org/2000/svg" xmlns:xlink="http://www.w3.org/1999/xlink" x="0px" y="0px"
	 viewBox="0 0 24 25" style="enable-background:new 0 0 24 25;" xml:space="preserve">
<style type="text/css">
	.st0{fill-rule:evenodd;clip-rule:evenodd;}
</style>
<path d="M11.4,0C5,0.3,0,5.8,0,12.4c0,2,0.5,3.9,1.3,5.6L0,24.4C0,24.8,0.3,25.1,0.6,25l6.1-1.5c1.6,0.8,3.3,1.3,5.2,1.3
	c6.5,0.1,12-5.3,12.2-12C24.2,5.6,18.4-0.3,11.4,0z M18.6,19.3c-1.8,1.8-4.1,2.8-6.6,2.8c-1.5,0-2.9-0.3-4.2-1L7,20.7l-3.7,0.9
	L4,17.6l-0.4-0.8c-0.7-1.4-1-2.9-1-4.4c0-2.6,1-5,2.8-6.9C7.1,3.7,9.5,2.7,12,2.7c2.5,0,4.9,1,6.6,2.8c1.8,1.8,2.8,4.3,2.8,6.9
	C21.4,15,20.4,17.4,18.6,19.3z M18.3,16.4c-0.5,0.7-1.2,1.6-2.1,1.9c-1.6,0.4-4,0-7.1-2.9C6.5,12.8,5.8,10.7,6,9
	c0.1-1,0.9-1.8,1.5-2.4C7.9,6.2,8.6,6.4,8.8,7l1,2.3c0.1,0.3,0.1,0.6-0.1,0.9l-0.5,0.7c-0.2,0.3-0.2,0.7-0.1,1
	c0.6,1.1,2.9,3.2,4,3.6c0.3,0.1,0.7,0.1,0.9-0.2l0.6-0.6c0.2-0.2,0.6-0.3,0.9-0.2l2.3,0.7C18.4,15.3,18.6,15.9,18.3,16.4z"  fill="#FF5959" />
</svg>
