<?xml version="1.0" encoding="utf-8"?>
<!-- Generator: Adobe Illustrator 22.1.0, SVG Export Plug-In . SVG Version: 6.00 Build 0)  -->
<svg version="1.1" id="Layer_1" xmlns="http://www.w3.org/2000/svg" xmlns:xlink="http://www.w3.org/1999/xlink" x="0px" y="0px"
	 viewBox="0 0 16 16" style="enable-background:new 0 0 16 16;" xml:space="preserve">
<style type="text/css">
	.st0{fill-rule:evenodd;clip-rule:evenodd;}
</style>
<path d="M7.6,0C3.3,0.2,0,3.7,0,8c0,1.3,0.3,2.5,0.9,3.6L0,15.6C0,15.8,0.2,16,0.4,16l4-0.9c1,0.5,2.2,0.8,3.4,0.8
	c4.4,0.1,8-3.4,8.1-7.7C16.1,3.6,12.3-0.2,7.6,0z M12.4,12.3c-1.2,1.2-2.8,1.8-4.4,1.8c-1,0-1.9-0.2-2.8-0.6l-0.6-0.3l-2.5,0.6
	l0.5-2.5l-0.3-0.5C2,9.9,1.7,8.9,1.7,7.9c0-1.7,0.7-3.2,1.8-4.4C4.7,2.4,6.3,1.7,8,1.7c1.7,0,3.2,0.6,4.4,1.8
	c1.2,1.2,1.8,2.7,1.8,4.4C14.3,9.6,13.6,11.2,12.4,12.3z M12.2,10.5c-0.3,0.5-0.8,1.1-1.4,1.2c-1.1,0.3-2.7,0-4.7-1.9
	C4.3,8.2,3.9,6.8,4,5.8C4,5.2,4.6,4.6,5,4.2C5.3,4,5.7,4.1,5.9,4.5l0.7,1.5c0.1,0.2,0.1,0.4-0.1,0.6L6.1,6.9C6,7.1,6,7.3,6.1,7.5
	c0.4,0.7,1.9,2,2.7,2.3C9,10,9.2,9.9,9.4,9.7l0.4-0.4c0.1-0.2,0.4-0.2,0.6-0.1l1.5,0.4C12.3,9.8,12.4,10.2,12.2,10.5z"  fill="#FF5959" />
</svg>
