<?xml version="1.0" encoding="utf-8"?>
<!-- Generator: Adobe Illustrator 22.1.0, SVG Export Plug-In . SVG Version: 6.00 Build 0)  -->
<svg version="1.1" id="Layer_1" xmlns="http://www.w3.org/2000/svg" xmlns:xlink="http://www.w3.org/1999/xlink" x="0px" y="0px"
	 viewBox="0 0 44 44" style="enable-background:new 0 0 44 44;" xml:space="preserve">
<style type="text/css">
	.st0{fill-rule:evenodd;clip-rule:evenodd;}
</style>
<path d="M31.7,14.1L23.8,22l7.9,7.9c0.5,0.5,0.5,1.3,0,1.8c-0.2,0.3-0.6,0.4-0.9,0.4c-0.3,0-0.6-0.1-0.9-0.4L22,23.8l-7.9,7.9
	c-0.2,0.3-0.6,0.4-0.9,0.4c-0.3,0-0.6-0.1-0.9-0.4c-0.5-0.5-0.5-1.3,0-1.8l7.9-7.9l-7.9-7.9c-0.5-0.5-0.5-1.3,0-1.8
	c0.5-0.5,1.3-0.5,1.8,0l7.9,7.9l7.9-7.9c0.5-0.5,1.3-0.5,1.8,0C32.2,12.8,32.2,13.6,31.7,14.1z M44,22c0,5.9-2.3,11.4-6.4,15.6
	C33.4,41.7,27.9,44,22,44s-11.4-2.3-15.6-6.4C2.3,33.4,0,27.9,0,22c0-5.9,2.3-11.4,6.4-15.6C10.6,2.3,16.1,0,22,0s11.4,2.3,15.6,6.4
	C41.7,10.6,44,16.1,44,22z M35.8,8.2C32.1,4.5,27.2,2.5,22,2.5s-10.1,2-13.8,5.7c-7.6,7.6-7.6,20,0,27.6c3.7,3.7,8.6,5.7,13.8,5.7
	s10.1-2,13.8-5.7C43.4,28.2,43.4,15.8,35.8,8.2z" fill="#ff5959" />
</svg>
