<?xml version="1.0" encoding="utf-8"?>
<!-- Generator: Adobe Illustrator 22.1.0, SVG Export Plug-In . SVG Version: 6.00 Build 0)  -->
<svg version="1.1" id="Layer_1" xmlns="http://www.w3.org/2000/svg" xmlns:xlink="http://www.w3.org/1999/xlink" x="0px" y="0px"
	 viewBox="0 0 10 15" style="enable-background:new 0 0 10 15;" xml:space="preserve">
<style type="text/css">
	.st0{fill-rule:evenodd;clip-rule:evenodd;}
</style>
<path d="M9.1,6.4V3.8C9.1,1.7,7.4,0,5.3,0H4.7C2.6,0,0.9,1.7,0.9,3.8v2.6H0V15h10V6.4H9.1z M6,12.4H4l0.4-1.6
	c-0.4-0.2-0.6-0.6-0.6-1c0-0.6,0.5-1.1,1.2-1.1s1.2,0.5,1.2,1.1c0,0.4-0.3,0.8-0.6,1L6,12.4z M7.4,6.4H2.6V3.8c0-1.1,1-2.1,2.1-2.1
	h0.6c1.2,0,2.1,0.9,2.1,2.1V6.4z"  fill="#c6c8cb" />
</svg>
